:SAMPLES-PER-SECOND 30
:FULLY-SPECIFIED
:DEGREES
186
root  -70.3589 40.2153 10.3925 171.792 23.0672 176.488
RightUpLeg  -15.5431 -33.1708 -6.50975
RightLeg  25.9951 -5.54652 -3.14454
RightFoot  -5.71377 0.00954374 -0.974464
RightToes  5.82063e-011 0 -3.6325e-017
Spine  19.2548 0.793573 -2.50751
Spine1  14.1628 2.44817 -7.00919
HEad  -11.9875 -16.1206 8.28079
LeftShoulder1  0.511026 1.98151 -27.3639
LeftArm  -11.2103 2.59342 -36.3245
LeftForeArm  46.8193 -77.1174 -53.5081
LeftHand  0.0725172 -0.372972 -1.44038
RightShoulder  -0.153259 -3.94918 26.1702
RightArm  -9.74171 -5.05612 43.9957
RightForeArm  38.8976 77.4214 61.7772
RightHand  -0.308788 1.96892 -5.07607
LeftUpLeg  1.66498 9.64503 -1.65003
LeftLeg  15.6976 23.8888 3.3567
LeftFoot  -9.84277 0.0288098 2.34387
LeftToes  2.58842e-009 -1.78069e-010 3.24654e-012
187
root  -70.2668 40.2974 10.18 171.743 28.1745 176.443
RightUpLeg  -13.5018 -35.3443 -6.76633
RightLeg  23.4415 -8.32272 -4.1432
RightFoot  -6.26119 0.0142428 -1.27344
RightToes  5.82063e-011 0 -3.6325e-017
Spine  17.4815 0.570952 -2.44494
Spine1  14.2419 1.92028 -6.047
HEad  -11.7484 -16.9013 8.99891
LeftShoulder1  0.497874 2.01426 -27.2882
LeftArm  -10.3005 3.47201 -35.9353
LeftForeArm  47.9354 -77.403 -55.7599
LeftHand  0.0507371 -0.602131 -0.929283
RightShoulder  -0.193554 -4.06337 26.7877
RightArm  -10.0566 -5.88511 43.3561
RightForeArm  43.1971 77.8234 65.4143
RightHand  -0.341467 2.16462 -5.42747
LeftUpLeg  2.84392 9.34532 -1.46541
LeftLeg  14.8466 28.8822 4.02115
LeftFoot  -9.45216 0.0319183 1.49856
LeftToes  2.58842e-009 -1.78069e-010 3.24654e-012
188
root  -70.0515 40.4175 9.94067 171.848 33.8183 176.694
RightUpLeg  -11.0285 -36.7952 -6.21814
RightLeg  19.5002 -10.1318 -4.21109
RightFoot  -5.88758 0.0385442 -1.63362
RightToes  5.82063e-011 0 -3.6325e-017
Spine  16.0556 0.686722 -2.33997
Spine1  14.1883 1.56849 -4.38832
HEad  -11.4457 -17.2054 9.42453
LeftShoulder1  0.438192 2.2141 -27.8172
LeftArm  -10.1587 3.77664 -36.0526
LeftForeArm  47.2444 -77.2766 -54.825
LeftHand  0.0766861 -0.426812 -1.49545
RightShoulder  -0.188005 -4.05302 26.4103
RightArm  -10.774 -7.55334 43.5951
RightForeArm  51.5764 78.442 72.4468
RightHand  -0.300609 2.01166 -4.884
LeftUpLeg  4.58875 10.0615 -0.417798
LeftLeg  13.2142 33.4263 3.45149
LeftFoot  -8.86208 0.0298166 1.09769
LeftToes  2.58842e-009 -1.78069e-010 3.24654e-012
189
root  -69.7824 40.4766 9.68821 172.827 39.0184 177.092
RightUpLeg  -9.19325 -36.0126 -5.38786
RightLeg  15.9198 -12.1755 -3.66913
RightFoot  -4.90573 0.0606804 -1.69802
RightToes  5.82063e-011 0 -3.6325e-017
Spine  14.3368 0.397952 -1.52942
Spine1  13.6117 1.16069 -3.72727
HEad  -11.0413 -17.8163 8.82212
LeftShoulder1  0.500292 2.03139 -27.8243
LeftArm  -9.8863 4.93682 -36.013
LeftForeArm  47.9075 -77.3822 -55.5562
LeftHand  0.0605939 -0.372917 -1.18022
RightShoulder  -0.187465 -4.04403 26.7854
RightArm  -10.8038 -8.47993 42.9594
RightForeArm  56.032 78.6795 77.3118
RightHand  -0.357623 1.69796 -6.00638
LeftUpLeg  4.86027 10.4744 0.247191
LeftLeg  13.2026 37.9102 4.07771
LeftFoot  -8.51921 0.0480311 0.117773
LeftToes  2.58842e-009 -1.78069e-010 3.24654e-012
190
root  -69.3612 40.4868 9.36571 173.7 44.4876 177.737
RightUpLeg  -6.2024 -29.1601 -5.64494
RightLeg  12.5824 -16.0629 -1.39096
RightFoot  -3.81879 0.0246299 -0.759175
RightToes  5.82063e-011 0 -3.6325e-017
Spine  11.9341 0.126402 -0.3881
Spine1  15.0182 0.939195 -3.4848
HEad  -11.3974 -17.2656 9.19595
LeftShoulder1  0.391049 2.34825 -27.6905
LeftArm  -9.76051 5.17367 -36.1101
LeftForeArm  48.6334 -77.484 -56.2443
LeftHand  0.0292004 0.0720289 -0.667785
RightShoulder  -0.294754 -4.36516 26.9702
RightArm  -10.9121 -8.70835 43.0774
RightForeArm  63.5444 78.9395 83.2574
RightHand  -0.258553 0.58046 -5.14782
LeftUpLeg  5.50226 11.2666 1.33506
LeftLeg  14.1484 42.0153 5.044
LeftFoot  -8.4312 0.0666511 -0.61815
LeftToes  2.58842e-009 -1.78069e-010 3.24654e-012
191
root  -68.9288 40.5417 9.02082 175.12 49.2672 179.176
RightUpLeg  -4.60754 -23.3463 -5.09481
RightLeg  9.93131 -18.4902 1.98086
RightFoot  -3.3168 0.00645771 -0.40769
RightToes  5.82063e-011 0 -3.6325e-017
Spine  10.7881 -0.353373 1.9633
Spine1  14.9701 0.523991 -3.00614
HEad  -11.0583 -16.557 8.59333
LeftShoulder1  0.413845 2.29564 -28.1154
LeftArm  -9.41885 5.65537 -35.6341
LeftForeArm  47.8292 -77.4215 -56.0315
LeftHand  0.0122 -0.258626 -0.228585
RightShoulder  -0.315764 -4.43986 26.5718
RightArm  -11.3974 -10.1089 43.1183
RightForeArm  71.0183 79.0762 89.4261
RightHand  -0.235492 1.07409 -4.35015
LeftUpLeg  6.43202 13.0326 3.01093
LeftLeg  14.8612 44.5893 5.72554
LeftFoot  -8.42853 0.0863805 -1.46596
LeftToes  2.58842e-009 -1.78069e-010 3.24654e-012
192
root  -68.4616 40.5005 8.73758 176.947 54.0045 -178.965
RightUpLeg  -3.87451 -16.7917 -3.54266
RightLeg  7.81324 -20.3974 3.55232
RightFoot  -2.5081 0.0425065 -0.776958
RightToes  5.82063e-011 0 -3.6325e-017
Spine  9.85833 -0.716729 4.28206
Spine1  14.9395 0.307221 -2.87503
HEad  -11.1006 -15.8622 7.41557
LeftShoulder1  0.411461 2.30772 -28.2628
LeftArm  -9.33299 5.85609 -35.7843
LeftForeArm  46.8588 -77.2398 -54.6749
LeftHand  0.0499134 -0.185635 -1.02002
RightShoulder  -0.274009 -4.31951 26.203
RightArm  -11.7082 -10.6334 43.1332
RightForeArm  74.6416 79.0805 92.5824
RightHand  -0.219149 -0.0499622 -4.69876
LeftUpLeg  6.7771 20.2252 5.76569
LeftLeg  17.4356 40.4212 7.77475
LeftFoot  -9.03326 0.117499 -3.11905
LeftToes  2.58842e-009 -1.78069e-010 3.24654e-012
193
root  -67.9269 40.3972 8.48828 178.548 58.1049 -176.824
RightUpLeg  -3.61018 -13.6085 -1.77044
RightLeg  8.48633 -19.5385 3.39338
RightFoot  -3.19532 0.103326 -1.76457
RightToes  5.82063e-011 0 -3.6325e-017
Spine  9.45235 -1.12528 5.84597
Spine1  15.2555 -0.248066 -1.80652
HEad  -11.0306 -14.5733 6.23169
LeftShoulder1  0.401283 2.33898 -28.3196
LeftArm  -9.75178 5.87611 -36.4264
LeftForeArm  46.2912 -77.0947 -53.5684
LeftHand  0.0636999 -0.547942 -1.19776
RightShoulder  -0.0916259 -3.7648 25.7088
RightArm  -12.1741 -11.4298 43.7713
RightForeArm  79.6128 79.0442 96.9465
RightHand  -0.316596 0.851046 -5.95607
LeftUpLeg  7.06483 30.0481 8.98768
LeftLeg  20.6929 28.4242 10.539
LeftFoot  -9.2014 0.131615 -3.95995
LeftToes  2.58842e-009 -1.78069e-010 3.24654e-012
194
root  -67.3642 40.2058 8.3728 179.893 62.5294 -174.533
RightUpLeg  -3.5464 -11.8449 0.00461624
RightLeg  10.7291 -17.2693 2.58975
RightFoot  -4.4424 0.109197 -2.28254
RightToes  5.82063e-011 0 -3.6325e-017
Spine  9.84679 -1.21499 6.5795
Spine1  15.4449 -0.478973 -0.496825
HEad  -10.4798 -12.8183 5.74216
LeftShoulder1  0.365713 2.44907 -28.5378
LeftArm  -9.83843 5.80263 -36.1181
LeftForeArm  48.1818 -77.4022 -55.6008
LeftHand  0.0550076 -0.260224 -1.11061
RightShoulder  -0.196009 -4.09171 25.6274
RightArm  -11.8335 -10.1868 43.3729
RightForeArm  78.9335 79.0482 96.3928
RightHand  -0.200411 -0.789374 -5.12836
LeftUpLeg  5.85274 29.1563 11.2539
LeftLeg  28.7299 23.0552 13.5562
LeftFoot  -8.05002 0.207113 -5.64545
LeftToes  2.58842e-009 -1.78069e-010 3.24654e-012
195
root  -66.8239 40.0303 8.24505 -178.639 66.4433 -172.238
RightUpLeg  -3.06524 -11.3088 1.04787
RightLeg  12.6524 -14.3913 2.3439
RightFoot  -6.35065 0.0331284 -1.75685
RightToes  5.82063e-011 0 -3.6325e-017
Spine  10.3063 -1.35052 7.49432
Spine1  15.8222 -0.505707 0.218663
HEad  -9.93928 -11.3211 5.53157
LeftShoulder1  0.379283 2.40994 -28.5465
LeftArm  -9.93027 4.8839 -36.2975
LeftForeArm  46.4996 -77.1685 -54.1655
LeftHand  0.0317222 0.182365 -0.726663
RightShoulder  -0.18293 -4.04736 25.8176
RightArm  -11.8417 -9.71207 43.4619
RightForeArm  78.7075 78.8823 98.7079
RightHand  -0.203192 -1.61255 -6.30667
LeftUpLeg  3.30605 24.29 11.8747
LeftLeg  37.4698 19.4322 15.662
LeftFoot  -3.84641 0.148011 -2.32167
LeftToes  2.58842e-009 -1.78069e-010 3.24654e-012
